<svg width="34" height="26" viewBox="0 0 34 26" fill="none" xmlns="http://www.w3.org/2000/svg">
<path d="M20 12C20 12.2652 19.8946 12.5196 19.7071 12.7071C19.5196 12.8946 19.2652 13 19 13C18.7348 13 18.4804 12.8946 18.2929 12.7071C18.1054 12.5196 18 12.2652 18 12C18 11.7348 18.1054 11.4804 18.2929 11.2929C18.4804 11.1054 18.7348 11 19 11C19.2652 11 19.5196 11.1054 19.7071 11.2929C19.8946 11.4804 20 11.7348 20 12V12Z" fill="#403846"/>
<path d="M25 13C25.2652 13 25.5196 12.8946 25.7071 12.7071C25.8946 12.5196 26 12.2652 26 12C26 11.7348 25.8946 11.4804 25.7071 11.2929C25.5196 11.1054 25.2652 11 25 11C24.7348 11 24.4804 11.1054 24.2929 11.2929C24.1054 11.4804 24 11.7348 24 12C24 12.2652 24.1054 12.5196 24.2929 12.7071C24.4804 12.8946 24.7348 13 25 13V13Z" fill="#403846"/>
<path fill-rule="evenodd" clip-rule="evenodd" d="M22.024 2.00001H22C16.477 2.00001 12 6.47702 12 12C12 17.523 16.477 22 22 22C27.523 22 32 17.523 32 12C32 6.74202 27.942 2.43201 22.788 2.03001V2.02802C22.5341 2.00891 22.2796 1.99957 22.025 2.00001H22.024ZM22 20C23.223 20.0003 24.4298 19.7201 25.5276 19.1811C26.6254 18.6421 27.5851 17.8585 28.3327 16.8907C29.0804 15.9228 29.5962 14.7965 29.8405 13.5981C30.0848 12.3997 30.0511 11.1613 29.742 9.97801C27.9928 10.0986 26.2426 9.75788 24.6664 8.98995C23.0902 8.22202 21.7432 7.05377 20.76 5.60202C20.0186 6.36031 19.1334 6.96314 18.1562 7.37524C17.1791 7.78733 16.1295 8.00041 15.069 8.00201C14.3672 9.21832 13.998 10.5979 13.9984 12.0022C13.9987 13.4064 14.3687 14.7858 15.0711 16.0017C15.7736 17.2177 16.7837 18.2273 17.9999 18.9291C19.2162 19.631 20.5958 20.0003 22 20V20ZM21.979 4.00002H22.024H21.979Z" fill="#403846"/>
<path d="M5.88867 15.1357H9.45703V16.6738H5.88867V20.7168H4.25391V16.6738H0.685547V15.1357H4.25391V11.4004H5.88867V15.1357Z" fill="#403846"/>
</svg>
