<svg width="20" height="20" viewBox="0 0 20 20" fill="none" xmlns="http://www.w3.org/2000/svg">
<path fill-rule="evenodd" clip-rule="evenodd" d="M2.91669 10.7501C2.60424 11.0627 2.42871 11.4865 2.42871 11.9284C2.42871 12.3704 2.60424 12.7942 2.91669 13.1068L6.13169 16.3218H3.40502C3.18401 16.3218 2.97205 16.4096 2.81577 16.5659C2.65949 16.7221 2.57169 16.9341 2.57169 17.1551C2.57169 17.3761 2.65949 17.5881 2.81577 17.7444C2.97205 17.9006 3.18401 17.9884 3.40502 17.9884H16.7384C16.9594 17.9884 17.1713 17.9006 17.3276 17.7444C17.4839 17.5881 17.5717 17.3761 17.5717 17.1551C17.5717 16.9341 17.4839 16.7221 17.3276 16.5659C17.1713 16.4096 16.9594 16.3218 16.7384 16.3218H9.13002L17.0592 8.39261C17.3716 8.08007 17.5472 7.65622 17.5472 7.21428C17.5472 6.77234 17.3716 6.34849 17.0592 6.03595L13.5225 2.50011C13.3677 2.34528 13.184 2.22245 12.9817 2.13865C12.7795 2.05485 12.5627 2.01172 12.3438 2.01172C12.1248 2.01172 11.9081 2.05485 11.7058 2.13865C11.5036 2.22245 11.3198 2.34528 11.165 2.50011L2.91669 10.7501ZM6.52169 9.50178L4.09502 11.9284L7.63085 15.4634L10.0567 13.0376L6.52169 9.50178ZM7.70002 8.32344L11.2359 11.8584L15.88 7.21428L12.345 3.67845L7.70002 8.32344Z" fill="#E4E1E8"/>
<path d="M11.5 12.5L7.5 8.5L12.5 3.5L16.5 7.5L11.5 12.5Z" fill="#E4E1E8"/>
</svg>
