<svg width="191" height="141" viewBox="0 0 191 141" fill="none" xmlns="http://www.w3.org/2000/svg">
<rect width="191" height="101" fill="#E4E1E8" fill-opacity="0.6"/>
<path d="M118.5 140.5V101H71L118.5 140.5Z" fill="#E4E1E8" fill-opacity="0.6"/>
<path d="M17.4678 29.915C17.5407 29.5505 17.2878 29.2861 16.709 29.1221L16.0869 28.9648C14.6149 28.5592 13.8994 27.8438 13.9404 26.8184C13.9632 26.1211 14.2708 25.5537 14.8633 25.1162C15.4603 24.6742 16.1781 24.4577 17.0166 24.4668C17.8506 24.4759 18.5251 24.6969 19.04 25.1299C19.555 25.5628 19.8171 26.1393 19.8262 26.8594L17.9121 26.8525C17.9212 26.2191 17.6068 25.8978 16.9688 25.8887C16.668 25.8887 16.4059 25.9639 16.1826 26.1143C15.9639 26.2646 15.8294 26.4674 15.7793 26.7227C15.7109 27.0872 15.9867 27.3447 16.6064 27.4951L16.8799 27.5566C17.5088 27.707 17.9896 27.8802 18.3223 28.0762C18.6549 28.2676 18.9102 28.5068 19.0879 28.7939C19.2702 29.0811 19.3545 29.4251 19.3408 29.8262C19.3271 30.2956 19.1745 30.7057 18.8828 31.0566C18.5957 31.4076 18.1992 31.6787 17.6934 31.8701C17.1921 32.0615 16.6634 32.1504 16.1074 32.1367C15.2871 32.1276 14.6035 31.8929 14.0566 31.4326C13.5098 30.9678 13.2318 30.3685 13.2227 29.6348L15.041 29.6484C15.0592 30.3548 15.4375 30.7126 16.1758 30.7217C16.5312 30.7217 16.8229 30.6488 17.0508 30.5029C17.2832 30.3571 17.4222 30.1611 17.4678 29.915ZM23.75 32.1367C23.1029 32.1322 22.5286 31.9749 22.0273 31.665C21.5306 31.3506 21.1592 30.9222 20.9131 30.3799C20.667 29.833 20.5713 29.2314 20.626 28.5752L20.6465 28.3018C20.7148 27.5817 20.9245 26.9209 21.2754 26.3193C21.6263 25.7178 22.0775 25.2552 22.6289 24.9316C23.1803 24.6035 23.791 24.4486 24.4609 24.4668C25.4134 24.485 26.1335 24.8359 26.6211 25.5195C27.1133 26.1986 27.3001 27.0599 27.1816 28.1035L27.0723 28.9443H22.54C22.5218 29.4229 22.638 29.8057 22.8887 30.0928C23.1393 30.3799 23.4811 30.528 23.9141 30.5371C24.6159 30.5553 25.2311 30.2842 25.7598 29.7236L26.6416 30.8174C26.3636 31.2367 25.9626 31.5648 25.4385 31.8018C24.9144 32.0342 24.3516 32.1458 23.75 32.1367ZM24.3652 26.0596C24.0098 26.0505 23.693 26.1621 23.415 26.3945C23.1416 26.627 22.8955 27.0303 22.6768 27.6045H25.3291L25.3701 27.4268C25.3975 27.2445 25.3997 27.0713 25.377 26.9072C25.3314 26.6429 25.2197 26.4378 25.042 26.292C24.8643 26.1416 24.6387 26.0641 24.3652 26.0596ZM36.1709 26.4561C35.9066 26.4105 35.6901 26.3877 35.5215 26.3877C34.8333 26.3695 34.2887 26.627 33.8877 27.1602L33.0332 32H31.1055L32.3906 24.6035L34.2021 24.5967L34.0244 25.499C34.4893 24.8018 35.0635 24.4531 35.7471 24.4531C35.9385 24.4531 36.1618 24.485 36.417 24.5488L36.1709 26.4561ZM39.5137 32.1367C38.8665 32.1322 38.2923 31.9749 37.791 31.665C37.2943 31.3506 36.9229 30.9222 36.6768 30.3799C36.4307 29.833 36.335 29.2314 36.3896 28.5752L36.4102 28.3018C36.4785 27.5817 36.6882 26.9209 37.0391 26.3193C37.39 25.7178 37.8411 25.2552 38.3926 24.9316C38.944 24.6035 39.5547 24.4486 40.2246 24.4668C41.1771 24.485 41.8971 24.8359 42.3848 25.5195C42.877 26.1986 43.0638 27.0599 42.9453 28.1035L42.8359 28.9443H38.3037C38.2855 29.4229 38.4017 29.8057 38.6523 30.0928C38.903 30.3799 39.2448 30.528 39.6777 30.5371C40.3796 30.5553 40.9948 30.2842 41.5234 29.7236L42.4053 30.8174C42.1273 31.2367 41.7262 31.5648 41.2021 31.8018C40.6781 32.0342 40.1152 32.1458 39.5137 32.1367ZM40.1289 26.0596C39.7734 26.0505 39.4567 26.1621 39.1787 26.3945C38.9053 26.627 38.6592 27.0303 38.4404 27.6045H41.0928L41.1338 27.4268C41.1611 27.2445 41.1634 27.0713 41.1406 26.9072C41.0951 26.6429 40.9834 26.4378 40.8057 26.292C40.6279 26.1416 40.4023 26.0641 40.1289 26.0596ZM46.459 24.5967L46.2949 25.4717C46.8874 24.7835 47.6051 24.4486 48.4482 24.4668C49.1455 24.4805 49.6605 24.7357 49.9932 25.2324C50.3258 25.7292 50.4466 26.4173 50.3555 27.2969L49.5762 32H47.6484L48.4414 27.2764C48.4642 27.0986 48.4688 26.9368 48.4551 26.791C48.3958 26.3262 48.1042 26.0869 47.5801 26.0732C47.0742 26.055 46.6208 26.2897 46.2197 26.7773L45.2969 32H43.3691L44.6543 24.6035L46.459 24.5967ZM54.7646 24.46C55.4528 24.4782 56.0088 24.7539 56.4326 25.2871L57.1572 21.5H59.0918L57.2734 32H55.5508L55.6602 31.207C55.1087 31.8496 54.4661 32.1618 53.7324 32.1436C53.2721 32.139 52.8688 32.0182 52.5225 31.7812C52.1761 31.5443 51.9072 31.2048 51.7158 30.7627C51.529 30.3161 51.4264 29.8193 51.4082 29.2725C51.3945 28.9854 51.4014 28.7074 51.4287 28.4385L51.4697 28.1309C51.5791 27.3743 51.7887 26.709 52.0986 26.1348C52.4131 25.5605 52.7959 25.1344 53.2471 24.8564C53.7028 24.5785 54.2087 24.4463 54.7646 24.46ZM53.3633 28.4385C53.3268 28.7848 53.3154 29.0765 53.3291 29.3135C53.3747 30.1156 53.6982 30.5234 54.2998 30.5371C54.8421 30.5599 55.3138 30.3047 55.7148 29.7715L56.2412 26.832C56.0635 26.3444 55.708 26.0892 55.1748 26.0664C54.7054 26.0527 54.3135 26.235 53.999 26.6133C53.6891 26.987 53.4772 27.5954 53.3633 28.4385ZM63.8838 26.4561C63.6195 26.4105 63.403 26.3877 63.2344 26.3877C62.5462 26.3695 62.0016 26.627 61.6006 27.1602L60.7461 32H58.8184L60.1035 24.6035L61.915 24.5967L61.7373 25.499C62.2021 24.8018 62.7764 24.4531 63.46 24.4531C63.6514 24.4531 63.8747 24.485 64.1299 24.5488L63.8838 26.4561ZM67.2266 32.1367C66.5794 32.1322 66.0052 31.9749 65.5039 31.665C65.0072 31.3506 64.6357 30.9222 64.3896 30.3799C64.1436 29.833 64.0479 29.2314 64.1025 28.5752L64.123 28.3018C64.1914 27.5817 64.401 26.9209 64.752 26.3193C65.1029 25.7178 65.554 25.2552 66.1055 24.9316C66.6569 24.6035 67.2676 24.4486 67.9375 24.4668C68.89 24.485 69.61 24.8359 70.0977 25.5195C70.5898 26.1986 70.7767 27.0599 70.6582 28.1035L70.5488 28.9443H66.0166C65.9984 29.4229 66.1146 29.8057 66.3652 30.0928C66.6159 30.3799 66.9577 30.528 67.3906 30.5371C68.0924 30.5553 68.7077 30.2842 69.2363 29.7236L70.1182 30.8174C69.8402 31.2367 69.4391 31.5648 68.915 31.8018C68.391 32.0342 67.8281 32.1458 67.2266 32.1367ZM67.8418 26.0596C67.4863 26.0505 67.1696 26.1621 66.8916 26.3945C66.6182 26.627 66.3721 27.0303 66.1533 27.6045H68.8057L68.8467 27.4268C68.874 27.2445 68.8763 27.0713 68.8535 26.9072C68.8079 26.6429 68.6963 26.4378 68.5186 26.292C68.3408 26.1416 68.1152 26.0641 67.8418 26.0596ZM78.2529 24.46C78.9411 24.4782 79.4971 24.7539 79.9209 25.2871L80.6455 21.5H82.5801L80.7617 32H79.0391L79.1484 31.207C78.597 31.8496 77.9544 32.1618 77.2207 32.1436C76.7604 32.139 76.3571 32.0182 76.0107 31.7812C75.6644 31.5443 75.3955 31.2048 75.2041 30.7627C75.0173 30.3161 74.9147 29.8193 74.8965 29.2725C74.8828 28.9854 74.8896 28.7074 74.917 28.4385L74.958 28.1309C75.0674 27.3743 75.277 26.709 75.5869 26.1348C75.9014 25.5605 76.2842 25.1344 76.7354 24.8564C77.1911 24.5785 77.6969 24.4463 78.2529 24.46ZM76.8516 28.4385C76.8151 28.7848 76.8037 29.0765 76.8174 29.3135C76.863 30.1156 77.1865 30.5234 77.7881 30.5371C78.3304 30.5599 78.8021 30.3047 79.2031 29.7715L79.7295 26.832C79.5518 26.3444 79.1963 26.0892 78.6631 26.0664C78.1937 26.0527 77.8018 26.235 77.4873 26.6133C77.1774 26.987 76.9655 27.5954 76.8516 28.4385ZM84.3438 32H82.4023L83.6875 24.6035H85.6289L84.3438 32ZM83.9131 22.7236C83.904 22.4183 84.0042 22.1654 84.2139 21.9648C84.4235 21.7643 84.6764 21.6641 84.9727 21.6641C85.2643 21.6549 85.5173 21.7438 85.7314 21.9307C85.9456 22.1175 86.0573 22.359 86.0664 22.6553C86.0755 22.9378 85.9798 23.1839 85.7793 23.3936C85.5833 23.6032 85.3258 23.7126 85.0068 23.7217C84.7197 23.7308 84.4668 23.6442 84.248 23.4619C84.0339 23.2796 83.9222 23.0335 83.9131 22.7236ZM91.0498 26.4561C90.7855 26.4105 90.569 26.3877 90.4004 26.3877C89.7122 26.3695 89.1676 26.627 88.7666 27.1602L87.9121 32H85.9844L87.2695 24.6035L89.0811 24.5967L88.9033 25.499C89.3682 24.8018 89.9424 24.4531 90.626 24.4531C90.8174 24.4531 91.0407 24.485 91.2959 24.5488L91.0498 26.4561ZM94.3926 32.1367C93.7454 32.1322 93.1712 31.9749 92.6699 31.665C92.1732 31.3506 91.8018 30.9222 91.5557 30.3799C91.3096 29.833 91.2139 29.2314 91.2686 28.5752L91.2891 28.3018C91.3574 27.5817 91.5671 26.9209 91.918 26.3193C92.2689 25.7178 92.7201 25.2552 93.2715 24.9316C93.8229 24.6035 94.4336 24.4486 95.1035 24.4668C96.056 24.485 96.776 24.8359 97.2637 25.5195C97.7559 26.1986 97.9427 27.0599 97.8242 28.1035L97.7148 28.9443H93.1826C93.1644 29.4229 93.2806 29.8057 93.5312 30.0928C93.7819 30.3799 94.1237 30.528 94.5566 30.5371C95.2585 30.5553 95.8737 30.2842 96.4023 29.7236L97.2842 30.8174C97.0062 31.2367 96.6051 31.5648 96.0811 31.8018C95.557 32.0342 94.9941 32.1458 94.3926 32.1367ZM95.0078 26.0596C94.6523 26.0505 94.3356 26.1621 94.0576 26.3945C93.7842 26.627 93.5381 27.0303 93.3193 27.6045H95.9717L96.0127 27.4268C96.04 27.2445 96.0423 27.0713 96.0195 26.9072C95.974 26.6429 95.8623 26.4378 95.6846 26.292C95.5068 26.1416 95.2812 26.0641 95.0078 26.0596ZM101.529 30.5508C101.885 30.5599 102.181 30.4642 102.418 30.2637C102.655 30.0586 102.81 29.7874 102.883 29.4502L104.694 29.4434C104.662 29.9629 104.498 30.43 104.202 30.8447C103.91 31.2594 103.519 31.583 103.026 31.8154C102.539 32.0479 102.024 32.1572 101.481 32.1436C100.584 32.1299 99.8727 31.82 99.3486 31.2139C98.8245 30.6077 98.5716 29.8011 98.5898 28.7939L98.6104 28.418L98.6172 28.3428C98.7402 27.1396 99.1458 26.1872 99.834 25.4854C100.522 24.779 101.372 24.4395 102.384 24.4668C103.218 24.485 103.879 24.7585 104.366 25.2871C104.858 25.8112 105.1 26.5039 105.091 27.3652H103.293C103.293 26.9688 103.206 26.6566 103.033 26.4287C102.86 26.2008 102.6 26.0778 102.254 26.0596C101.333 26.0322 100.775 26.7044 100.579 28.0762C100.511 28.5729 100.486 28.9922 100.504 29.334C100.549 30.1315 100.891 30.5371 101.529 30.5508ZM109.35 22.7852L109.028 24.6035H110.259L110.006 26.0527H108.775L108.146 29.7578C108.119 29.9902 108.137 30.168 108.201 30.291C108.265 30.4141 108.42 30.4801 108.666 30.4893C108.739 30.4938 108.935 30.4824 109.254 30.4551L109.117 31.9658C108.775 32.0798 108.406 32.1322 108.01 32.123C107.376 32.1139 106.905 31.9157 106.595 31.5283C106.285 31.141 106.157 30.6169 106.212 29.9561L106.848 26.0527H105.802L106.055 24.6035H107.101L107.415 22.7852H109.35ZM113.615 32.1367C112.968 32.1322 112.394 31.9749 111.893 31.665C111.396 31.3506 111.024 30.9222 110.778 30.3799C110.532 29.833 110.437 29.2314 110.491 28.5752L110.512 28.3018C110.58 27.5817 110.79 26.9209 111.141 26.3193C111.492 25.7178 111.943 25.2552 112.494 24.9316C113.046 24.6035 113.656 24.4486 114.326 24.4668C115.279 24.485 115.999 24.8359 116.486 25.5195C116.979 26.1986 117.165 27.0599 117.047 28.1035L116.938 28.9443H112.405C112.387 29.4229 112.503 29.8057 112.754 30.0928C113.005 30.3799 113.346 30.528 113.779 30.5371C114.481 30.5553 115.096 30.2842 115.625 29.7236L116.507 30.8174C116.229 31.2367 115.828 31.5648 115.304 31.8018C114.78 32.0342 114.217 32.1458 113.615 32.1367ZM114.23 26.0596C113.875 26.0505 113.558 26.1621 113.28 26.3945C113.007 26.627 112.761 27.0303 112.542 27.6045H115.194L115.235 27.4268C115.263 27.2445 115.265 27.0713 115.242 26.9072C115.197 26.6429 115.085 26.4378 114.907 26.292C114.729 26.1416 114.504 26.0641 114.23 26.0596ZM120.588 24.5967L120.431 25.4375C121.028 24.7721 121.75 24.4486 122.598 24.4668C123.053 24.4759 123.432 24.5807 123.732 24.7812C124.033 24.9818 124.236 25.2529 124.341 25.5947C124.993 24.8245 125.758 24.4486 126.638 24.4668C127.317 24.4805 127.827 24.7129 128.169 25.1641C128.515 25.6152 128.661 26.2669 128.606 27.1191L128.593 27.29L127.807 32H125.872L126.658 27.2764C126.676 27.1077 126.683 26.9505 126.679 26.8047C126.647 26.3262 126.373 26.0801 125.858 26.0664C125.33 26.0664 124.876 26.349 124.498 26.9141L124.478 27.0713L123.616 32H121.688L122.475 27.29C122.493 27.1214 122.5 26.9642 122.495 26.8184C122.463 26.3353 122.192 26.0869 121.682 26.0732C121.194 26.0596 120.754 26.2897 120.362 26.7637L119.439 32H117.512L118.79 24.6035L120.588 24.5967ZM132.852 32.1367C132.204 32.1322 131.63 31.9749 131.129 31.665C130.632 31.3506 130.261 30.9222 130.015 30.3799C129.769 29.833 129.673 29.2314 129.728 28.5752L129.748 28.3018C129.816 27.5817 130.026 26.9209 130.377 26.3193C130.728 25.7178 131.179 25.2552 131.73 24.9316C132.282 24.6035 132.893 24.4486 133.562 24.4668C134.515 24.485 135.235 24.8359 135.723 25.5195C136.215 26.1986 136.402 27.0599 136.283 28.1035L136.174 28.9443H131.642C131.623 29.4229 131.74 29.8057 131.99 30.0928C132.241 30.3799 132.583 30.528 133.016 30.5371C133.717 30.5553 134.333 30.2842 134.861 29.7236L135.743 30.8174C135.465 31.2367 135.064 31.5648 134.54 31.8018C134.016 32.0342 133.453 32.1458 132.852 32.1367ZM133.467 26.0596C133.111 26.0505 132.795 26.1621 132.517 26.3945C132.243 26.627 131.997 27.0303 131.778 27.6045H134.431L134.472 27.4268C134.499 27.2445 134.501 27.0713 134.479 26.9072C134.433 26.6429 134.321 26.4378 134.144 26.292C133.966 26.1416 133.74 26.0641 133.467 26.0596ZM139.797 24.5967L139.633 25.4717C140.225 24.7835 140.943 24.4486 141.786 24.4668C142.483 24.4805 142.998 24.7357 143.331 25.2324C143.664 25.7292 143.785 26.4173 143.693 27.2969L142.914 32H140.986L141.779 27.2764C141.802 27.0986 141.807 26.9368 141.793 26.791C141.734 26.3262 141.442 26.0869 140.918 26.0732C140.412 26.055 139.959 26.2897 139.558 26.7773L138.635 32H136.707L137.992 24.6035L139.797 24.5967ZM148.342 22.7852L148.021 24.6035H149.251L148.998 26.0527H147.768L147.139 29.7578C147.111 29.9902 147.13 30.168 147.193 30.291C147.257 30.4141 147.412 30.4801 147.658 30.4893C147.731 30.4938 147.927 30.4824 148.246 30.4551L148.109 31.9658C147.768 32.0798 147.398 32.1322 147.002 32.123C146.368 32.1139 145.897 31.9157 145.587 31.5283C145.277 31.141 145.149 30.6169 145.204 29.9561L145.84 26.0527H144.794L145.047 24.6035H146.093L146.407 22.7852H148.342ZM156.832 32C156.773 31.8132 156.748 31.5898 156.757 31.3301C156.201 31.8861 155.572 32.1549 154.87 32.1367C154.223 32.1276 153.685 31.918 153.257 31.5078C152.833 31.0931 152.635 30.5827 152.662 29.9766C152.694 29.1699 153.031 28.5524 153.674 28.124C154.321 27.6911 155.187 27.4746 156.271 27.4746L157.174 27.4883L157.27 27.0439C157.297 26.8936 157.304 26.75 157.29 26.6133C157.267 26.3991 157.185 26.2327 157.044 26.1143C156.907 25.9912 156.725 25.9274 156.497 25.9229C156.196 25.9137 155.941 25.9889 155.731 26.1484C155.522 26.3034 155.387 26.529 155.328 26.8252L153.394 26.832C153.425 26.1257 153.749 25.5537 154.364 25.1162C154.984 24.6742 155.747 24.4577 156.654 24.4668C157.493 24.485 158.149 24.7357 158.623 25.2188C159.097 25.6973 159.295 26.3148 159.218 27.0713L158.65 30.6123L158.616 31.0498C158.607 31.3734 158.646 31.6468 158.732 31.8701L158.726 32H156.832ZM155.349 30.6396C155.905 30.6579 156.39 30.4163 156.805 29.915L157.044 28.6367L156.374 28.6299C155.663 28.6481 155.15 28.8646 154.836 29.2793C154.722 29.4297 154.651 29.6143 154.624 29.833C154.588 30.0791 154.638 30.2751 154.774 30.4209C154.916 30.5622 155.107 30.6351 155.349 30.6396ZM157.837 23.6191L156.395 23.6123L154.87 21.5137L156.859 21.5L157.837 23.6191ZM165.404 32H163.463L165.288 21.5H167.223L165.404 32ZM171.324 32C171.265 31.8132 171.24 31.5898 171.249 31.3301C170.693 31.8861 170.064 32.1549 169.362 32.1367C168.715 32.1276 168.177 31.918 167.749 31.5078C167.325 31.0931 167.127 30.5827 167.154 29.9766C167.186 29.1699 167.523 28.5524 168.166 28.124C168.813 27.6911 169.679 27.4746 170.764 27.4746L171.666 27.4883L171.762 27.0439C171.789 26.8936 171.796 26.75 171.782 26.6133C171.759 26.3991 171.677 26.2327 171.536 26.1143C171.399 25.9912 171.217 25.9274 170.989 25.9229C170.688 25.9137 170.433 25.9889 170.224 26.1484C170.014 26.3034 169.88 26.529 169.82 26.8252L167.886 26.832C167.918 26.1257 168.241 25.5537 168.856 25.1162C169.476 24.6742 170.24 24.4577 171.146 24.4668C171.985 24.485 172.641 24.7357 173.115 25.2188C173.589 25.6973 173.787 26.3148 173.71 27.0713L173.143 30.6123L173.108 31.0498C173.099 31.3734 173.138 31.6468 173.225 31.8701L173.218 32H171.324ZM169.841 30.6396C170.397 30.6579 170.882 30.4163 171.297 29.915L171.536 28.6367L170.866 28.6299C170.155 28.6481 169.643 28.8646 169.328 29.2793C169.214 29.4297 169.144 29.6143 169.116 29.833C169.08 30.0791 169.13 30.2751 169.267 30.4209C169.408 30.5622 169.599 30.6351 169.841 30.6396ZM42.1455 45.915C42.2184 45.5505 41.9655 45.2861 41.3867 45.1221L40.7646 44.9648C39.2926 44.5592 38.5771 43.8438 38.6182 42.8184C38.641 42.1211 38.9486 41.5537 39.541 41.1162C40.138 40.6742 40.8558 40.4577 41.6943 40.4668C42.5283 40.4759 43.2028 40.6969 43.7178 41.1299C44.2327 41.5628 44.4948 42.1393 44.5039 42.8594L42.5898 42.8525C42.599 42.2191 42.2845 41.8978 41.6465 41.8887C41.3457 41.8887 41.0837 41.9639 40.8604 42.1143C40.6416 42.2646 40.5072 42.4674 40.457 42.7227C40.3887 43.0872 40.6644 43.3447 41.2842 43.4951L41.5576 43.5566C42.1865 43.707 42.6673 43.8802 43 44.0762C43.3327 44.2676 43.5879 44.5068 43.7656 44.7939C43.9479 45.0811 44.0322 45.4251 44.0186 45.8262C44.0049 46.2956 43.8522 46.7057 43.5605 47.0566C43.2734 47.4076 42.877 47.6787 42.3711 47.8701C41.8698 48.0615 41.3411 48.1504 40.7852 48.1367C39.9648 48.1276 39.2812 47.8929 38.7344 47.4326C38.1875 46.9678 37.9095 46.3685 37.9004 45.6348L39.7188 45.6484C39.737 46.3548 40.1152 46.7126 40.8535 46.7217C41.209 46.7217 41.5007 46.6488 41.7285 46.5029C41.9609 46.3571 42.0999 46.1611 42.1455 45.915ZM48.4277 48.1367C47.7806 48.1322 47.2064 47.9749 46.7051 47.665C46.2083 47.3506 45.8369 46.9222 45.5908 46.3799C45.3447 45.833 45.249 45.2314 45.3037 44.5752L45.3242 44.3018C45.3926 43.5817 45.6022 42.9209 45.9531 42.3193C46.304 41.7178 46.7552 41.2552 47.3066 40.9316C47.8581 40.6035 48.4688 40.4486 49.1387 40.4668C50.0911 40.485 50.8112 40.8359 51.2988 41.5195C51.791 42.1986 51.9779 43.0599 51.8594 44.1035L51.75 44.9443H47.2178C47.1995 45.4229 47.3158 45.8057 47.5664 46.0928C47.8171 46.3799 48.1589 46.528 48.5918 46.5371C49.2936 46.5553 49.9089 46.2842 50.4375 45.7236L51.3193 46.8174C51.0413 47.2367 50.6403 47.5648 50.1162 47.8018C49.5921 48.0342 49.0293 48.1458 48.4277 48.1367ZM49.043 42.0596C48.6875 42.0505 48.3708 42.1621 48.0928 42.3945C47.8193 42.627 47.5732 43.0303 47.3545 43.6045H50.0068L50.0479 43.4268C50.0752 43.2445 50.0775 43.0713 50.0547 42.9072C50.0091 42.6429 49.8975 42.4378 49.7197 42.292C49.542 42.1416 49.3164 42.0641 49.043 42.0596ZM49.8223 37.5H52.0576L49.8838 39.6191H48.1816L49.8223 37.5ZM55.9951 40.46C56.7607 40.4782 57.3464 40.7881 57.752 41.3896L58.0664 40.5967L59.7891 40.6035L58.0117 50.8438H56.0703L56.7607 47.3506C56.2458 47.8929 55.6465 48.1549 54.9629 48.1367C54.5026 48.1322 54.0993 48.0114 53.7529 47.7744C53.4066 47.5374 53.1377 47.1956 52.9463 46.749C52.7594 46.2979 52.6569 45.8034 52.6387 45.2656C52.625 44.9785 52.6318 44.6982 52.6592 44.4248L52.7002 44.124C52.8096 43.3584 53.0192 42.6885 53.3291 42.1143C53.6436 41.54 54.0264 41.1185 54.4775 40.8496C54.9333 40.5762 55.4391 40.4463 55.9951 40.46ZM54.5664 45.3066C54.612 46.1178 54.9355 46.5303 55.5371 46.5439C56.0794 46.5622 56.5443 46.3229 56.9316 45.8262L57.4922 42.75C57.3145 42.3079 56.9567 42.0778 56.4189 42.0596C55.9359 42.0459 55.5371 42.2373 55.2227 42.6338C54.9082 43.0257 54.7054 43.5749 54.6143 44.2812C54.5687 44.7507 54.5527 45.0924 54.5664 45.3066ZM64.6426 47.2344C64.0957 47.8496 63.4167 48.1504 62.6055 48.1367C61.8945 48.1276 61.3568 47.8724 60.9922 47.3711C60.6276 46.8698 60.4863 46.209 60.5684 45.3887L61.3682 40.6035H63.2959L62.4824 45.4092C62.4642 45.5596 62.4619 45.7008 62.4756 45.833C62.5212 46.2887 62.7741 46.5234 63.2344 46.5371C63.8314 46.5553 64.3258 46.3252 64.7178 45.8467L65.6406 40.6035H67.582L66.2969 48H64.499L64.6426 47.2344ZM71.2461 48.1367C70.599 48.1322 70.0247 47.9749 69.5234 47.665C69.0267 47.3506 68.6553 46.9222 68.4092 46.3799C68.1631 45.833 68.0674 45.2314 68.1221 44.5752L68.1426 44.3018C68.2109 43.5817 68.4206 42.9209 68.7715 42.3193C69.1224 41.7178 69.5736 41.2552 70.125 40.9316C70.6764 40.6035 71.2871 40.4486 71.957 40.4668C72.9095 40.485 73.6296 40.8359 74.1172 41.5195C74.6094 42.1986 74.7962 43.0599 74.6777 44.1035L74.5684 44.9443H70.0361C70.0179 45.4229 70.1341 45.8057 70.3848 46.0928C70.6354 46.3799 70.9772 46.528 71.4102 46.5371C72.112 46.5553 72.7272 46.2842 73.2559 45.7236L74.1377 46.8174C73.8597 47.2367 73.4587 47.5648 72.9346 47.8018C72.4105 48.0342 71.8477 48.1458 71.2461 48.1367ZM71.8613 42.0596C71.5059 42.0505 71.1891 42.1621 70.9111 42.3945C70.6377 42.627 70.3916 43.0303 70.1729 43.6045H72.8252L72.8662 43.4268C72.8936 43.2445 72.8958 43.0713 72.873 42.9072C72.8275 42.6429 72.7158 42.4378 72.5381 42.292C72.3604 42.1416 72.1348 42.0641 71.8613 42.0596ZM78.1914 40.5967L78.0273 41.4717C78.6198 40.7835 79.3376 40.4486 80.1807 40.4668C80.8779 40.4805 81.3929 40.7357 81.7256 41.2324C82.0583 41.7292 82.179 42.4173 82.0879 43.2969L81.3086 48H79.3809L80.1738 43.2764C80.1966 43.0986 80.2012 42.9368 80.1875 42.791C80.1283 42.3262 79.8366 42.0869 79.3125 42.0732C78.8066 42.055 78.3532 42.2897 77.9521 42.7773L77.0293 48H75.1016L76.3867 40.6035L78.1914 40.5967ZM86.0664 46.5508C86.4219 46.5599 86.7181 46.4642 86.9551 46.2637C87.1921 46.0586 87.347 45.7874 87.4199 45.4502L89.2314 45.4434C89.1995 45.9629 89.0355 46.43 88.7393 46.8447C88.4476 47.2594 88.0557 47.583 87.5635 47.8154C87.0758 48.0479 86.5609 48.1572 86.0186 48.1436C85.1208 48.1299 84.4098 47.82 83.8857 47.2139C83.3617 46.6077 83.1087 45.8011 83.127 44.7939L83.1475 44.418L83.1543 44.3428C83.2773 43.1396 83.6829 42.1872 84.3711 41.4854C85.0592 40.779 85.9092 40.4395 86.9209 40.4668C87.7549 40.485 88.4157 40.7585 88.9033 41.2871C89.3955 41.8112 89.637 42.5039 89.6279 43.3652H87.8301C87.8301 42.9688 87.7435 42.6566 87.5703 42.4287C87.3971 42.2008 87.1374 42.0778 86.791 42.0596C85.8704 42.0322 85.3122 42.7044 85.1162 44.0762C85.0479 44.5729 85.0228 44.9922 85.041 45.334C85.0866 46.1315 85.4284 46.5371 86.0664 46.5508ZM93.4902 48.1367C92.8431 48.1322 92.2689 47.9749 91.7676 47.665C91.2708 47.3506 90.8994 46.9222 90.6533 46.3799C90.4072 45.833 90.3115 45.2314 90.3662 44.5752L90.3867 44.3018C90.4551 43.5817 90.6647 42.9209 91.0156 42.3193C91.3665 41.7178 91.8177 41.2552 92.3691 40.9316C92.9206 40.6035 93.5312 40.4486 94.2012 40.4668C95.1536 40.485 95.8737 40.8359 96.3613 41.5195C96.8535 42.1986 97.0404 43.0599 96.9219 44.1035L96.8125 44.9443H92.2803C92.262 45.4229 92.3783 45.8057 92.6289 46.0928C92.8796 46.3799 93.2214 46.528 93.6543 46.5371C94.3561 46.5553 94.9714 46.2842 95.5 45.7236L96.3818 46.8174C96.1038 47.2367 95.7028 47.5648 95.1787 47.8018C94.6546 48.0342 94.0918 48.1458 93.4902 48.1367ZM94.1055 42.0596C93.75 42.0505 93.4333 42.1621 93.1553 42.3945C92.8818 42.627 92.6357 43.0303 92.417 43.6045H95.0693L95.1104 43.4268C95.1377 43.2445 95.14 43.0713 95.1172 42.9072C95.0716 42.6429 94.96 42.4378 94.7822 42.292C94.6045 42.1416 94.3789 42.0641 94.1055 42.0596ZM105.132 45.915C105.205 45.5505 104.952 45.2861 104.373 45.1221L103.751 44.9648C102.279 44.5592 101.563 43.8438 101.604 42.8184C101.627 42.1211 101.935 41.5537 102.527 41.1162C103.124 40.6742 103.842 40.4577 104.681 40.4668C105.515 40.4759 106.189 40.6969 106.704 41.1299C107.219 41.5628 107.481 42.1393 107.49 42.8594L105.576 42.8525C105.585 42.2191 105.271 41.8978 104.633 41.8887C104.332 41.8887 104.07 41.9639 103.847 42.1143C103.628 42.2646 103.493 42.4674 103.443 42.7227C103.375 43.0872 103.651 43.3447 104.271 43.4951L104.544 43.5566C105.173 43.707 105.654 43.8802 105.986 44.0762C106.319 44.2676 106.574 44.5068 106.752 44.7939C106.934 45.0811 107.019 45.4251 107.005 45.8262C106.991 46.2956 106.839 46.7057 106.547 47.0566C106.26 47.4076 105.863 47.6787 105.357 47.8701C104.856 48.0615 104.327 48.1504 103.771 48.1367C102.951 48.1276 102.268 47.8929 101.721 47.4326C101.174 46.9678 100.896 46.3685 100.887 45.6348L102.705 45.6484C102.723 46.3548 103.102 46.7126 103.84 46.7217C104.195 46.7217 104.487 46.6488 104.715 46.5029C104.947 46.3571 105.086 46.1611 105.132 45.915ZM112.48 47.2344C111.934 47.8496 111.255 48.1504 110.443 48.1367C109.732 48.1276 109.195 47.8724 108.83 47.3711C108.465 46.8698 108.324 46.209 108.406 45.3887L109.206 40.6035H111.134L110.32 45.4092C110.302 45.5596 110.3 45.7008 110.313 45.833C110.359 46.2887 110.612 46.5234 111.072 46.5371C111.669 46.5553 112.164 46.3252 112.556 45.8467L113.479 40.6035H115.42L114.135 48H112.337L112.48 47.2344ZM117.607 48H115.666L116.951 40.6035H118.893L117.607 48ZM117.177 38.7236C117.168 38.4183 117.268 38.1654 117.478 37.9648C117.687 37.7643 117.94 37.6641 118.236 37.6641C118.528 37.6549 118.781 37.7438 118.995 37.9307C119.209 38.1175 119.321 38.359 119.33 38.6553C119.339 38.9378 119.243 39.1839 119.043 39.3936C118.847 39.6032 118.59 39.7126 118.271 39.7217C117.983 39.7308 117.73 39.6442 117.512 39.4619C117.298 39.2796 117.186 39.0335 117.177 38.7236ZM122.358 45.5596L124.464 40.6035H126.542L122.967 48H121.121L119.856 40.6035H121.812L122.358 45.5596ZM130.35 48C130.29 47.8132 130.265 47.5898 130.274 47.3301C129.718 47.8861 129.09 48.1549 128.388 48.1367C127.741 48.1276 127.203 47.918 126.774 47.5078C126.351 47.0931 126.152 46.5827 126.18 45.9766C126.212 45.1699 126.549 44.5524 127.191 44.124C127.839 43.6911 128.704 43.4746 129.789 43.4746L130.691 43.4883L130.787 43.0439C130.814 42.8936 130.821 42.75 130.808 42.6133C130.785 42.3991 130.703 42.2327 130.562 42.1143C130.425 41.9912 130.243 41.9274 130.015 41.9229C129.714 41.9137 129.459 41.9889 129.249 42.1484C129.039 42.3034 128.905 42.529 128.846 42.8252L126.911 42.832C126.943 42.1257 127.267 41.5537 127.882 41.1162C128.502 40.6742 129.265 40.4577 130.172 40.4668C131.01 40.485 131.667 40.7357 132.141 41.2188C132.615 41.6973 132.813 42.3148 132.735 43.0713L132.168 46.6123L132.134 47.0498C132.125 47.3734 132.163 47.6468 132.25 47.8701L132.243 48H130.35ZM128.866 46.6396C129.422 46.6579 129.908 46.4163 130.322 45.915L130.562 44.6367L129.892 44.6299C129.181 44.6481 128.668 44.8646 128.354 45.2793C128.24 45.4297 128.169 45.6143 128.142 45.833C128.105 46.0791 128.155 46.2751 128.292 46.4209C128.433 46.5622 128.625 46.6351 128.866 46.6396ZM136.475 40.5967L136.311 41.4717C136.903 40.7835 137.621 40.4486 138.464 40.4668C139.161 40.4805 139.676 40.7357 140.009 41.2324C140.341 41.7292 140.462 42.4173 140.371 43.2969L139.592 48H137.664L138.457 43.2764C138.48 43.0986 138.484 42.9368 138.471 42.791C138.411 42.3262 138.12 42.0869 137.596 42.0732C137.09 42.055 136.636 42.2897 136.235 42.7773L135.312 48H133.385L134.67 40.6035L136.475 40.5967ZM145.02 38.7852L144.698 40.6035H145.929L145.676 42.0527H144.445L143.816 45.7578C143.789 45.9902 143.807 46.168 143.871 46.291C143.935 46.4141 144.09 46.4801 144.336 46.4893C144.409 46.4938 144.605 46.4824 144.924 46.4551L144.787 47.9658C144.445 48.0798 144.076 48.1322 143.68 48.123C143.046 48.1139 142.575 47.9157 142.265 47.5283C141.955 47.141 141.827 46.6169 141.882 45.9561L142.518 42.0527H141.472L141.725 40.6035H142.771L143.085 38.7852H145.02ZM149.285 48.1367C148.638 48.1322 148.064 47.9749 147.562 47.665C147.066 47.3506 146.694 46.9222 146.448 46.3799C146.202 45.833 146.106 45.2314 146.161 44.5752L146.182 44.3018C146.25 43.5817 146.46 42.9209 146.811 42.3193C147.161 41.7178 147.613 41.2552 148.164 40.9316C148.715 40.6035 149.326 40.4486 149.996 40.4668C150.949 40.485 151.669 40.8359 152.156 41.5195C152.648 42.1986 152.835 43.0599 152.717 44.1035L152.607 44.9443H148.075C148.057 45.4229 148.173 45.8057 148.424 46.0928C148.674 46.3799 149.016 46.528 149.449 46.5371C150.151 46.5553 150.766 46.2842 151.295 45.7236L152.177 46.8174C151.899 47.2367 151.498 47.5648 150.974 47.8018C150.45 48.0342 149.887 48.1458 149.285 48.1367ZM149.9 42.0596C149.545 42.0505 149.228 42.1621 148.95 42.3945C148.677 42.627 148.431 43.0303 148.212 43.6045H150.864L150.905 43.4268C150.933 43.2445 150.935 43.0713 150.912 42.9072C150.867 42.6429 150.755 42.4378 150.577 42.292C150.399 42.1416 150.174 42.0641 149.9 42.0596Z" fill="#322C37"/>
<path d="M94.8032 73.6434L96.2494 75.0895L100.59 70.7501L96.2504 66.4106L94.8043 67.8578L96.6728 69.7273H88.9645V71.7728H96.6728L94.8032 73.6434Z" fill="#322C37"/>
<path fill-rule="evenodd" clip-rule="evenodd" d="M83.5 77.9091C83.5 78.9941 83.931 80.0346 84.6982 80.8018C85.4654 81.569 86.5059 82 87.5909 82H101.909C102.994 82 104.035 81.569 104.802 80.8018C105.569 80.0346 106 78.9941 106 77.9091V63.5909C106 62.5059 105.569 61.4654 104.802 60.6982C104.035 59.931 102.994 59.5 101.909 59.5H87.5909C86.5059 59.5 85.4654 59.931 84.6982 60.6982C83.931 61.4654 83.5 62.5059 83.5 63.5909V77.9091ZM87.5909 79.9545H101.909C102.452 79.9545 102.972 79.739 103.355 79.3554C103.739 78.9718 103.955 78.4516 103.955 77.9091V63.5909C103.955 63.0484 103.739 62.5282 103.355 62.1446C102.972 61.761 102.452 61.5455 101.909 61.5455H87.5909C87.0484 61.5455 86.5282 61.761 86.1446 62.1446C85.761 62.5282 85.5455 63.0484 85.5455 63.5909V77.9091C85.5455 78.4516 85.761 78.9718 86.1446 79.3554C86.5282 79.739 87.0484 79.9545 87.5909 79.9545Z" fill="#322C37"/>
</svg>
