<svg width="210" height="82" viewBox="0 0 210 82" fill="none" xmlns="http://www.w3.org/2000/svg">
<path d="M28 2C28 0.895429 28.8954 0 30 0H208C209.105 0 210 0.89543 210 2V80C210 81.1046 209.105 82 208 82H28V2Z" fill="#E4E1E8" fill-opacity="0.6"/>
<path d="M0 82H28V57L0 82Z" fill="#E4E1E8" fill-opacity="0.6"/>
<path d="M53.6826 26.7529C53.514 27.792 53.0469 28.6214 52.2812 29.2412C51.5156 29.8564 50.5837 30.1549 49.4854 30.1367C48.8519 30.123 48.2959 29.9727 47.8174 29.6855C47.3434 29.3984 46.972 28.9814 46.7031 28.4346C46.4342 27.8831 46.2839 27.2611 46.252 26.5684C46.2246 26.0488 46.2884 25.3424 46.4434 24.4492C46.5983 23.5514 46.8945 22.7471 47.332 22.0361C47.7741 21.3252 48.3141 20.7897 48.9521 20.4297C49.5947 20.0697 50.3079 19.8965 51.0918 19.9102C52.0807 19.9284 52.8623 20.2406 53.4365 20.8467C54.0153 21.4482 54.3229 22.2799 54.3594 23.3418H52.6846C52.6618 22.6309 52.5114 22.1182 52.2334 21.8037C51.96 21.4847 51.5521 21.3184 51.0098 21.3047C50.2669 21.2819 49.6449 21.5485 49.1436 22.1045C48.6423 22.6605 48.305 23.4694 48.1318 24.5312L47.9951 25.4404L47.9336 26.1377C47.8971 26.6071 47.929 27.0492 48.0293 27.4639C48.1341 27.874 48.3164 28.1885 48.5762 28.4072C48.8359 28.6214 49.1663 28.7354 49.5674 28.749C50.8389 28.7992 51.6546 28.1383 52.0146 26.7666L53.6826 26.7529ZM54.9609 26.2744C55.0384 25.5498 55.2503 24.8913 55.5967 24.2988C55.9476 23.7064 56.3965 23.2484 56.9434 22.9248C57.4902 22.6012 58.0964 22.4486 58.7617 22.4668C59.3952 22.4759 59.9421 22.6445 60.4023 22.9727C60.8626 23.3008 61.1976 23.7497 61.4072 24.3193C61.6214 24.889 61.6966 25.5225 61.6328 26.2197C61.5599 27.0036 61.3457 27.6963 60.9902 28.2979C60.6393 28.8994 60.1882 29.362 59.6367 29.6855C59.0898 30.0046 58.4814 30.1549 57.8115 30.1367C57.1826 30.1276 56.638 29.9613 56.1777 29.6377C55.722 29.3096 55.387 28.863 55.1729 28.2979C54.9587 27.7282 54.8812 27.1016 54.9404 26.418L54.9609 26.2744ZM56.5537 27.2109C56.5765 27.6895 56.7018 28.0745 56.9297 28.3662C57.1621 28.6533 57.4834 28.8037 57.8936 28.8174C58.4495 28.8311 58.9144 28.6169 59.2881 28.1748C59.6663 27.7327 59.9033 27.1289 59.999 26.3633L60.04 25.6934C60.04 25.11 59.9238 24.652 59.6914 24.3193C59.459 23.9867 59.1217 23.8112 58.6797 23.793C57.987 23.7747 57.4401 24.1143 57.0391 24.8115C56.7975 25.2354 56.6449 25.723 56.5811 26.2744C56.5446 26.6572 56.5355 26.9694 56.5537 27.2109ZM65.1738 22.5967L65.0303 23.3828C65.641 22.7539 66.3701 22.4486 67.2178 22.4668C67.6826 22.4759 68.0677 22.583 68.373 22.7881C68.6829 22.9932 68.8926 23.2643 69.002 23.6016C69.6855 22.8268 70.4694 22.4486 71.3535 22.4668C72.0736 22.485 72.6068 22.7334 72.9531 23.2119C73.304 23.6859 73.4362 24.3512 73.3496 25.208L72.5498 30H70.9297L71.7363 25.1943C71.7591 24.9938 71.7614 24.8092 71.7432 24.6406C71.6702 24.1074 71.333 23.834 70.7314 23.8203C70.0615 23.8021 69.5329 24.1689 69.1455 24.9209L69.125 25.0713L68.2773 30H66.6504L67.457 25.2148C67.4798 25.0189 67.4821 24.8366 67.4639 24.668C67.391 24.1165 67.0537 23.834 66.4521 23.8203C65.846 23.8112 65.3402 24.0824 64.9346 24.6338L63.998 30H62.3779L63.6562 22.6035L65.1738 22.5967ZM77.0684 22.5967L76.9248 23.3828C77.5355 22.7539 78.2646 22.4486 79.1123 22.4668C79.5771 22.4759 79.9622 22.583 80.2676 22.7881C80.5775 22.9932 80.7871 23.2643 80.8965 23.6016C81.5801 22.8268 82.3639 22.4486 83.248 22.4668C83.9681 22.485 84.5013 22.7334 84.8477 23.2119C85.1986 23.6859 85.3307 24.3512 85.2441 25.208L84.4443 30H82.8242L83.6309 25.1943C83.6536 24.9938 83.6559 24.8092 83.6377 24.6406C83.5648 24.1074 83.2275 23.834 82.626 23.8203C81.9561 23.8021 81.4274 24.1689 81.04 24.9209L81.0195 25.0713L80.1719 30H78.5449L79.3516 25.2148C79.3743 25.0189 79.3766 24.8366 79.3584 24.668C79.2855 24.1165 78.9482 23.834 78.3467 23.8203C77.7406 23.8112 77.2347 24.0824 76.8291 24.6338L75.8926 30H74.2725L75.5508 22.6035L77.0684 22.5967ZM89.5166 30.1367C88.874 30.123 88.3158 29.9613 87.8418 29.6514C87.3724 29.3415 87.0238 28.9176 86.7959 28.3799C86.5726 27.8421 86.4883 27.2428 86.543 26.582L86.5635 26.3018C86.6455 25.5498 86.8643 24.8753 87.2197 24.2783C87.5798 23.6768 88.0264 23.221 88.5596 22.9111C89.0928 22.6012 89.6715 22.4531 90.2959 22.4668C91.221 22.485 91.9137 22.8291 92.374 23.499C92.8389 24.1689 93.0143 25.0417 92.9004 26.1172L92.8047 26.8281H88.1494C88.1084 27.416 88.2269 27.89 88.5049 28.25C88.7829 28.61 89.1657 28.7946 89.6533 28.8037C90.3506 28.8265 90.9932 28.5234 91.5811 27.8945L92.4014 28.7559C92.0915 29.1979 91.6836 29.542 91.1777 29.7881C90.6719 30.0296 90.1182 30.1458 89.5166 30.1367ZM90.207 23.793C89.3503 23.7656 88.7077 24.3717 88.2793 25.6113L91.3486 25.6182L91.376 25.4746C91.4079 25.265 91.4102 25.0599 91.3828 24.8594C91.3327 24.5358 91.2051 24.2806 91 24.0938C90.7949 23.9069 90.5306 23.8066 90.207 23.793ZM96.3047 22.5967L96.1406 23.4648C96.7741 22.7812 97.5055 22.4486 98.335 22.4668C99.0277 22.4805 99.5404 22.7288 99.873 23.2119C100.206 23.6904 100.329 24.3604 100.242 25.2217L99.4424 30H97.8223L98.6289 25.2012C98.6517 25.0052 98.654 24.8229 98.6357 24.6543C98.5765 24.112 98.2529 23.834 97.665 23.8203C97.0498 23.8112 96.5098 24.1143 96.0449 24.7295L95.1221 30H93.502L94.7803 22.6035L96.3047 22.5967ZM104.378 28.8174C104.765 28.8265 105.107 28.7148 105.403 28.4824C105.704 28.2454 105.896 27.9378 105.978 27.5596L107.509 27.5527C107.459 28.0404 107.281 28.4847 106.976 28.8857C106.675 29.2868 106.287 29.599 105.813 29.8223C105.34 30.0456 104.845 30.1504 104.33 30.1367C103.697 30.1276 103.157 29.9635 102.71 29.6445C102.263 29.3255 101.938 28.8857 101.732 28.3252C101.527 27.7601 101.459 27.1312 101.527 26.4385L101.548 26.1992C101.625 25.4837 101.833 24.8366 102.17 24.2578C102.512 23.6745 102.951 23.2256 103.489 22.9111C104.027 22.5967 104.624 22.4486 105.28 22.4668C106.082 22.485 106.723 22.7516 107.201 23.2666C107.68 23.777 107.919 24.4424 107.919 25.2627H106.401C106.401 24.8389 106.297 24.4925 106.087 24.2236C105.882 23.9548 105.583 23.8112 105.191 23.793C104.558 23.7747 104.059 24.0436 103.694 24.5996C103.33 25.1556 103.134 25.9395 103.106 26.9512C103.075 28.1771 103.498 28.7992 104.378 28.8174ZM111.679 30.1367C111.036 30.123 110.478 29.9613 110.004 29.6514C109.535 29.3415 109.186 28.9176 108.958 28.3799C108.735 27.8421 108.65 27.2428 108.705 26.582L108.726 26.3018C108.808 25.5498 109.026 24.8753 109.382 24.2783C109.742 23.6768 110.188 23.221 110.722 22.9111C111.255 22.6012 111.834 22.4531 112.458 22.4668C113.383 22.485 114.076 22.8291 114.536 23.499C115.001 24.1689 115.176 25.0417 115.062 26.1172L114.967 26.8281H110.312C110.271 27.416 110.389 27.89 110.667 28.25C110.945 28.61 111.328 28.7946 111.815 28.8037C112.513 28.8265 113.155 28.5234 113.743 27.8945L114.563 28.7559C114.254 29.1979 113.846 29.542 113.34 29.7881C112.834 30.0296 112.28 30.1458 111.679 30.1367ZM112.369 23.793C111.512 23.7656 110.87 24.3717 110.441 25.6113L113.511 25.6182L113.538 25.4746C113.57 25.265 113.572 25.0599 113.545 24.8594C113.495 24.5358 113.367 24.2806 113.162 24.0938C112.957 23.9069 112.693 23.8066 112.369 23.793ZM117.708 28.6738H121.468L121.235 30H115.404L115.609 28.8311L120.039 23.9434H116.519L116.758 22.6035H122.384L122.186 23.7314L117.708 28.6738ZM132.973 26.3291C132.882 27.0674 132.683 27.7373 132.378 28.3389C132.077 28.9404 131.692 29.3962 131.223 29.7061C130.758 30.0114 130.236 30.1572 129.657 30.1436C128.887 30.1253 128.281 29.8519 127.839 29.3232L127.176 32.8438H125.549L127.326 22.6035L128.81 22.5967L128.687 23.3623C129.252 22.7471 129.924 22.4486 130.703 22.4668C131.173 22.4714 131.58 22.5921 131.927 22.8291C132.273 23.0615 132.537 23.401 132.72 23.8477C132.907 24.2943 133.007 24.791 133.021 25.3379C133.025 25.6159 133.009 25.9463 132.973 26.3291ZM131.373 26.1855L131.407 25.6865C131.421 25.0986 131.323 24.6429 131.113 24.3193C130.908 23.9958 130.598 23.8294 130.184 23.8203C129.573 23.8021 129.044 24.0824 128.598 24.6611L128.023 27.9629C128.229 28.5143 128.646 28.7992 129.274 28.8174C129.812 28.8311 130.263 28.6214 130.628 28.1885C130.997 27.7555 131.245 27.0879 131.373 26.1855ZM138.154 30C138.1 29.8177 138.077 29.5876 138.086 29.3096C137.475 29.8792 136.817 30.1549 136.11 30.1367C135.468 30.1276 134.935 29.9225 134.511 29.5215C134.091 29.1159 133.896 28.6032 133.923 27.9834C133.959 27.2041 134.297 26.5911 134.935 26.1445C135.573 25.6979 136.429 25.4746 137.505 25.4746L138.558 25.4883L138.653 24.9824C138.681 24.8047 138.681 24.6383 138.653 24.4834C138.562 23.9912 138.236 23.7383 137.676 23.7246C137.329 23.7155 137.024 23.8044 136.76 23.9912C136.5 24.1735 136.34 24.4196 136.281 24.7295L134.661 24.7432C134.693 24.2874 134.855 23.8887 135.146 23.5469C135.438 23.2005 135.826 22.9316 136.309 22.7402C136.792 22.5488 137.302 22.4577 137.84 22.4668C138.646 22.485 139.275 22.7288 139.727 23.1982C140.178 23.6631 140.365 24.2669 140.287 25.0098L139.72 28.4756L139.665 29.0908C139.651 29.3597 139.686 29.6217 139.768 29.877L139.761 30H138.154ZM136.486 28.8105C136.828 28.8197 137.145 28.7422 137.437 28.5781C137.728 28.4095 137.977 28.193 138.182 27.9287L138.435 26.5273L137.662 26.5205C137.051 26.5205 136.564 26.6367 136.199 26.8691C135.835 27.097 135.627 27.4115 135.577 27.8125C135.541 28.1178 135.607 28.3594 135.775 28.5371C135.949 28.7103 136.186 28.8014 136.486 28.8105ZM146.022 24.1211C145.813 24.0755 145.601 24.0527 145.387 24.0527C144.676 24.0345 144.111 24.3285 143.691 24.9346L142.803 30H141.183L142.461 22.6035L143.999 22.5967L143.835 23.4375C144.341 22.7676 144.924 22.4395 145.585 22.4531C145.735 22.4531 145.943 22.4873 146.207 22.5557L146.022 24.1211ZM153.877 30C153.822 29.8177 153.799 29.5876 153.809 29.3096C153.198 29.8792 152.539 30.1549 151.833 30.1367C151.19 30.1276 150.657 29.9225 150.233 29.5215C149.814 29.1159 149.618 28.6032 149.646 27.9834C149.682 27.2041 150.019 26.5911 150.657 26.1445C151.295 25.6979 152.152 25.4746 153.228 25.4746L154.28 25.4883L154.376 24.9824C154.403 24.8047 154.403 24.6383 154.376 24.4834C154.285 23.9912 153.959 23.7383 153.398 23.7246C153.052 23.7155 152.747 23.8044 152.482 23.9912C152.223 24.1735 152.063 24.4196 152.004 24.7295L150.384 24.7432C150.416 24.2874 150.577 23.8887 150.869 23.5469C151.161 23.2005 151.548 22.9316 152.031 22.7402C152.514 22.5488 153.025 22.4577 153.562 22.4668C154.369 22.485 154.998 22.7288 155.449 23.1982C155.9 23.6631 156.087 24.2669 156.01 25.0098L155.442 28.4756L155.388 29.0908C155.374 29.3597 155.408 29.6217 155.49 29.877L155.483 30H153.877ZM152.209 28.8105C152.551 28.8197 152.868 28.7422 153.159 28.5781C153.451 28.4095 153.699 28.193 153.904 27.9287L154.157 26.5273L153.385 26.5205C152.774 26.5205 152.286 26.6367 151.922 26.8691C151.557 27.097 151.35 27.4115 151.3 27.8125C151.263 28.1178 151.329 28.3594 151.498 28.5371C151.671 28.7103 151.908 28.8014 152.209 28.8105ZM159.879 22.6035L158.519 30.6494C158.418 31.415 158.154 32.0007 157.726 32.4062C157.297 32.8164 156.739 33.0169 156.051 33.0078C155.759 32.9987 155.451 32.9554 155.128 32.8779L155.265 31.5654C155.474 31.6156 155.666 31.6406 155.839 31.6406C156.418 31.6406 156.766 31.3011 156.885 30.6221L158.259 22.6035H159.879ZM158.457 20.71C158.457 20.4456 158.539 20.2292 158.703 20.0605C158.867 19.8874 159.086 19.7962 159.359 19.7871C159.624 19.778 159.842 19.8577 160.016 20.0264C160.193 20.1904 160.282 20.4001 160.282 20.6553C160.282 20.915 160.196 21.1292 160.022 21.2979C159.854 21.4665 159.637 21.5553 159.373 21.5645C159.1 21.5645 158.879 21.4847 158.71 21.3252C158.541 21.1611 158.457 20.9561 158.457 20.71ZM160.768 26.2744C160.845 25.5498 161.057 24.8913 161.403 24.2988C161.754 23.7064 162.203 23.2484 162.75 22.9248C163.297 22.6012 163.903 22.4486 164.568 22.4668C165.202 22.4759 165.749 22.6445 166.209 22.9727C166.669 23.3008 167.004 23.7497 167.214 24.3193C167.428 24.889 167.503 25.5225 167.439 26.2197C167.367 27.0036 167.152 27.6963 166.797 28.2979C166.446 28.8994 165.995 29.362 165.443 29.6855C164.896 30.0046 164.288 30.1549 163.618 30.1367C162.989 30.1276 162.445 29.9613 161.984 29.6377C161.529 29.3096 161.194 28.863 160.979 28.2979C160.765 27.7282 160.688 27.1016 160.747 26.418L160.768 26.2744ZM162.36 27.2109C162.383 27.6895 162.508 28.0745 162.736 28.3662C162.969 28.6533 163.29 28.8037 163.7 28.8174C164.256 28.8311 164.721 28.6169 165.095 28.1748C165.473 27.7327 165.71 27.1289 165.806 26.3633L165.847 25.6934C165.847 25.11 165.73 24.652 165.498 24.3193C165.266 23.9867 164.928 23.8112 164.486 23.793C163.794 23.7747 163.247 24.1143 162.846 24.8115C162.604 25.2354 162.451 25.723 162.388 26.2744C162.351 26.6572 162.342 26.9694 162.36 27.2109ZM172.758 29.2686C172.197 29.8656 171.495 30.1549 170.652 30.1367C170.174 30.1276 169.775 30.0091 169.456 29.7812C169.142 29.5534 168.916 29.2367 168.779 28.8311C168.647 28.4209 168.608 27.9401 168.663 27.3887L169.463 22.6035H171.083L170.276 27.4092C170.258 27.5778 170.256 27.7419 170.27 27.9014C170.315 28.4665 170.6 28.7604 171.124 28.7832C171.84 28.8105 172.418 28.5234 172.86 27.9219L173.79 22.6035H175.41L174.132 30H172.614L172.758 29.2686ZM179.43 20.8057L179.115 22.6035H180.38L180.168 23.834H178.896L178.199 27.9766C178.186 28.0905 178.183 28.193 178.192 28.2842C178.22 28.5804 178.402 28.7354 178.739 28.749C178.908 28.749 179.099 28.7285 179.313 28.6875L179.204 29.9863C178.867 30.082 178.527 30.1299 178.186 30.1299C177.62 30.1208 177.197 29.9294 176.914 29.5557C176.636 29.1774 176.527 28.6784 176.586 28.0586L177.276 23.834H176.094L176.312 22.6035H177.488L177.803 20.8057H179.43ZM183.743 30.1367C183.101 30.123 182.542 29.9613 182.068 29.6514C181.599 29.3415 181.25 28.9176 181.022 28.3799C180.799 27.8421 180.715 27.2428 180.77 26.582L180.79 26.3018C180.872 25.5498 181.091 24.8753 181.446 24.2783C181.806 23.6768 182.253 23.221 182.786 22.9111C183.319 22.6012 183.898 22.4531 184.522 22.4668C185.448 22.485 186.14 22.8291 186.601 23.499C187.065 24.1689 187.241 25.0417 187.127 26.1172L187.031 26.8281H182.376C182.335 27.416 182.453 27.89 182.731 28.25C183.009 28.61 183.392 28.7946 183.88 28.8037C184.577 28.8265 185.22 28.5234 185.808 27.8945L186.628 28.7559C186.318 29.1979 185.91 29.542 185.404 29.7881C184.898 30.0296 184.345 30.1458 183.743 30.1367ZM184.434 23.793C183.577 23.7656 182.934 24.3717 182.506 25.6113L185.575 25.6182L185.603 25.4746C185.634 25.265 185.637 25.0599 185.609 24.8594C185.559 24.5358 185.432 24.2806 185.227 24.0938C185.021 23.9069 184.757 23.8066 184.434 23.793ZM192.589 24.1211C192.379 24.0755 192.167 24.0527 191.953 24.0527C191.242 24.0345 190.677 24.3285 190.258 24.9346L189.369 30H187.749L189.027 22.6035L190.565 22.5967L190.401 23.4375C190.907 22.7676 191.491 22.4395 192.151 22.4531C192.302 22.4531 192.509 22.4873 192.773 22.5557L192.589 24.1211ZM62.3984 46H60.7783L62.6035 35.5H64.2236L62.3984 46ZM67.5664 46.1367C66.9238 46.123 66.3656 45.9613 65.8916 45.6514C65.4222 45.3415 65.0736 44.9176 64.8457 44.3799C64.6224 43.8421 64.5381 43.2428 64.5928 42.582L64.6133 42.3018C64.6953 41.5498 64.9141 40.8753 65.2695 40.2783C65.6296 39.6768 66.0762 39.221 66.6094 38.9111C67.1426 38.6012 67.7214 38.4531 68.3457 38.4668C69.2708 38.485 69.9635 38.8291 70.4238 39.499C70.8887 40.1689 71.0641 41.0417 70.9502 42.1172L70.8545 42.8281H66.1992C66.1582 43.416 66.2767 43.89 66.5547 44.25C66.8327 44.61 67.2155 44.7946 67.7031 44.8037C68.4004 44.8265 69.043 44.5234 69.6309 43.8945L70.4512 44.7559C70.1413 45.1979 69.7334 45.542 69.2275 45.7881C68.7217 46.0296 68.168 46.1458 67.5664 46.1367ZM68.2568 39.793C67.4001 39.7656 66.7575 40.3717 66.3291 41.6113L69.3984 41.6182L69.4258 41.4746C69.4577 41.265 69.46 41.0599 69.4326 40.8594C69.3825 40.5358 69.2549 40.2806 69.0498 40.0938C68.8447 39.9069 68.5804 39.8066 68.2568 39.793ZM77.8135 38.5967L77.6494 39.4648C78.2829 38.7812 79.0143 38.4486 79.8438 38.4668C80.5365 38.4805 81.0492 38.7288 81.3818 39.2119C81.7145 39.6904 81.8376 40.3604 81.751 41.2217L80.9512 46H79.3311L80.1377 41.2012C80.1605 41.0052 80.1628 40.8229 80.1445 40.6543C80.0853 40.112 79.7617 39.834 79.1738 39.8203C78.5586 39.8112 78.0186 40.1143 77.5537 40.7295L76.6309 46H75.0107L76.2891 38.6035L77.8135 38.5967ZM83.0498 42.2744C83.1273 41.5498 83.3392 40.8913 83.6855 40.2988C84.0365 39.7064 84.4854 39.2484 85.0322 38.9248C85.5791 38.6012 86.1852 38.4486 86.8506 38.4668C87.484 38.4759 88.0309 38.6445 88.4912 38.9727C88.9515 39.3008 89.2865 39.7497 89.4961 40.3193C89.7103 40.889 89.7855 41.5225 89.7217 42.2197C89.6488 43.0036 89.4346 43.6963 89.0791 44.2979C88.7282 44.8994 88.277 45.362 87.7256 45.6855C87.1787 46.0046 86.5703 46.1549 85.9004 46.1367C85.2715 46.1276 84.7269 45.9613 84.2666 45.6377C83.8109 45.3096 83.4759 44.863 83.2617 44.2979C83.0475 43.7282 82.9701 43.1016 83.0293 42.418L83.0498 42.2744ZM84.6426 43.2109C84.6654 43.6895 84.7907 44.0745 85.0186 44.3662C85.251 44.6533 85.5723 44.8037 85.9824 44.8174C86.5384 44.8311 87.0033 44.6169 87.377 44.1748C87.7552 43.7327 87.9922 43.1289 88.0879 42.3633L88.1289 41.6934C88.1289 41.11 88.0127 40.652 87.7803 40.3193C87.5479 39.9867 87.2106 39.8112 86.7686 39.793C86.0758 39.7747 85.529 40.1143 85.1279 40.8115C84.8864 41.2354 84.7337 41.723 84.6699 42.2744C84.6335 42.6572 84.6243 42.9694 84.6426 43.2109ZM93.2627 38.5967L93.1191 39.3828C93.7298 38.7539 94.459 38.4486 95.3066 38.4668C95.7715 38.4759 96.1566 38.583 96.4619 38.7881C96.7718 38.9932 96.9814 39.2643 97.0908 39.6016C97.7744 38.8268 98.5583 38.4486 99.4424 38.4668C100.162 38.485 100.696 38.7334 101.042 39.2119C101.393 39.6859 101.525 40.3512 101.438 41.208L100.639 46H99.0186L99.8252 41.1943C99.848 40.9938 99.8503 40.8092 99.832 40.6406C99.7591 40.1074 99.4219 39.834 98.8203 39.8203C98.1504 39.8021 97.6217 40.1689 97.2344 40.9209L97.2139 41.0713L96.3662 46H94.7393L95.5459 41.2148C95.5687 41.0189 95.571 40.8366 95.5527 40.668C95.4798 40.1165 95.1426 39.834 94.541 39.8203C93.9349 39.8112 93.429 40.0824 93.0234 40.6338L92.0869 46H90.4668L91.7451 38.6035L93.2627 38.5967ZM106.176 42.2949C106.267 41.5339 106.472 40.8503 106.791 40.2441C107.11 39.638 107.504 39.1868 107.974 38.8906C108.443 38.5898 108.965 38.4463 109.539 38.46C110.291 38.4782 110.879 38.7585 111.303 39.3008L112.014 35.5H113.641L111.815 46H110.366L110.476 45.2344C109.901 45.8587 109.227 46.1618 108.452 46.1436C107.764 46.1344 107.213 45.8701 106.798 45.3506C106.388 44.8265 106.167 44.1315 106.135 43.2656C106.121 42.9831 106.128 42.7074 106.155 42.4385L106.176 42.2949ZM107.748 42.9307C107.716 43.4958 107.803 43.9447 108.008 44.2773C108.217 44.61 108.527 44.7809 108.938 44.79C109.562 44.8083 110.102 44.5052 110.558 43.8809L111.111 40.7021C110.897 40.1325 110.482 39.8385 109.867 39.8203C109.247 39.8021 108.748 40.0755 108.37 40.6406C107.992 41.2057 107.785 41.9691 107.748 42.9307ZM116.908 46.1367C116.266 46.123 115.707 45.9613 115.233 45.6514C114.764 45.3415 114.415 44.9176 114.188 44.3799C113.964 43.8421 113.88 43.2428 113.935 42.582L113.955 42.3018C114.037 41.5498 114.256 40.8753 114.611 40.2783C114.971 39.6768 115.418 39.221 115.951 38.9111C116.484 38.6012 117.063 38.4531 117.688 38.4668C118.613 38.485 119.305 38.8291 119.766 39.499C120.23 40.1689 120.406 41.0417 120.292 42.1172L120.196 42.8281H115.541C115.5 43.416 115.618 43.89 115.896 44.25C116.174 44.61 116.557 44.7946 117.045 44.8037C117.742 44.8265 118.385 44.5234 118.973 43.8945L119.793 44.7559C119.483 45.1979 119.075 45.542 118.569 45.7881C118.063 46.0296 117.51 46.1458 116.908 46.1367ZM117.599 39.793C116.742 39.7656 116.099 40.3717 115.671 41.6113L118.74 41.6182L118.768 41.4746C118.799 41.265 118.802 41.0599 118.774 40.8594C118.724 40.5358 118.597 40.2806 118.392 40.0938C118.187 39.9069 117.922 39.8066 117.599 39.793ZM125.337 43.9492C125.414 43.498 125.12 43.1859 124.455 43.0127C123.794 42.835 123.343 42.6937 123.102 42.5889C122.163 42.1878 121.709 41.5771 121.741 40.7568C121.764 40.0915 122.065 39.5423 122.644 39.1094C123.227 38.6719 123.924 38.4577 124.735 38.4668C125.519 38.4759 126.157 38.6969 126.649 39.1299C127.146 39.5628 127.39 40.1302 127.381 40.832L125.774 40.8252C125.784 40.4834 125.69 40.2168 125.494 40.0254C125.298 39.8294 125.029 39.7269 124.688 39.7178C124.327 39.7178 124.018 39.8066 123.758 39.9844C123.503 40.1621 123.354 40.3945 123.313 40.6816C123.25 41.0964 123.541 41.3857 124.188 41.5498C124.836 41.7093 125.314 41.8574 125.624 41.9941C126.526 42.3906 126.962 43.0104 126.93 43.8535C126.907 44.3229 126.752 44.7331 126.465 45.084C126.182 45.4303 125.802 45.6969 125.323 45.8838C124.845 46.0661 124.337 46.1504 123.799 46.1367C122.992 46.1276 122.322 45.8929 121.789 45.4326C121.26 44.9723 121.001 44.3822 121.01 43.6621L122.575 43.6689C122.584 44.0654 122.703 44.3662 122.931 44.5713C123.159 44.7764 123.471 44.8812 123.867 44.8857C124.268 44.8857 124.601 44.8037 124.865 44.6396C125.134 44.471 125.291 44.2409 125.337 43.9492ZM135.851 46C135.796 45.8177 135.773 45.5876 135.782 45.3096C135.172 45.8792 134.513 46.1549 133.807 46.1367C133.164 46.1276 132.631 45.9225 132.207 45.5215C131.788 45.1159 131.592 44.6032 131.619 43.9834C131.656 43.2041 131.993 42.5911 132.631 42.1445C133.269 41.6979 134.126 41.4746 135.201 41.4746L136.254 41.4883L136.35 40.9824C136.377 40.8047 136.377 40.6383 136.35 40.4834C136.258 39.9912 135.933 39.7383 135.372 39.7246C135.026 39.7155 134.72 39.8044 134.456 39.9912C134.196 40.1735 134.037 40.4196 133.978 40.7295L132.357 40.7432C132.389 40.2874 132.551 39.8887 132.843 39.5469C133.134 39.2005 133.522 38.9316 134.005 38.7402C134.488 38.5488 134.998 38.4577 135.536 38.4668C136.343 38.485 136.972 38.7288 137.423 39.1982C137.874 39.6631 138.061 40.2669 137.983 41.0098L137.416 44.4756L137.361 45.0908C137.348 45.3597 137.382 45.6217 137.464 45.877L137.457 46H135.851ZM134.183 44.8105C134.524 44.8197 134.841 44.7422 135.133 44.5781C135.424 44.4095 135.673 44.193 135.878 43.9287L136.131 42.5273L135.358 42.5205C134.748 42.5205 134.26 42.6367 133.896 42.8691C133.531 43.097 133.324 43.4115 133.273 43.8125C133.237 44.1178 133.303 44.3594 133.472 44.5371C133.645 44.7103 133.882 44.8014 134.183 44.8105ZM142.105 44.8174C142.493 44.8265 142.835 44.7148 143.131 44.4824C143.432 44.2454 143.623 43.9378 143.705 43.5596L145.236 43.5527C145.186 44.0404 145.008 44.4847 144.703 44.8857C144.402 45.2868 144.015 45.599 143.541 45.8223C143.067 46.0456 142.573 46.1504 142.058 46.1367C141.424 46.1276 140.884 45.9635 140.438 45.6445C139.991 45.3255 139.665 44.8857 139.46 44.3252C139.255 43.7601 139.187 43.1312 139.255 42.4385L139.275 42.1992C139.353 41.4837 139.56 40.8366 139.897 40.2578C140.239 39.6745 140.679 39.2256 141.217 38.9111C141.755 38.5967 142.352 38.4486 143.008 38.4668C143.81 38.485 144.45 38.7516 144.929 39.2666C145.407 39.777 145.646 40.4424 145.646 41.2627H144.129C144.129 40.8389 144.024 40.4925 143.814 40.2236C143.609 39.9548 143.311 39.8112 142.919 39.793C142.285 39.7747 141.786 40.0436 141.422 40.5996C141.057 41.1556 140.861 41.9395 140.834 42.9512C140.802 44.1771 141.226 44.7992 142.105 44.8174ZM149.687 36.8057L149.372 38.6035H150.637L150.425 39.834H149.153L148.456 43.9766C148.442 44.0905 148.44 44.193 148.449 44.2842C148.477 44.5804 148.659 44.7354 148.996 44.749C149.165 44.749 149.356 44.7285 149.57 44.6875L149.461 45.9863C149.124 46.082 148.784 46.1299 148.442 46.1299C147.877 46.1208 147.453 45.9294 147.171 45.5557C146.893 45.1774 146.784 44.6784 146.843 44.0586L147.533 39.834H146.351L146.569 38.6035H147.745L148.06 36.8057H149.687ZM154 46.1367C153.357 46.123 152.799 45.9613 152.325 45.6514C151.856 45.3415 151.507 44.9176 151.279 44.3799C151.056 43.8421 150.972 43.2428 151.026 42.582L151.047 42.3018C151.129 41.5498 151.348 40.8753 151.703 40.2783C152.063 39.6768 152.51 39.221 153.043 38.9111C153.576 38.6012 154.155 38.4531 154.779 38.4668C155.704 38.485 156.397 38.8291 156.857 39.499C157.322 40.1689 157.498 41.0417 157.384 42.1172L157.288 42.8281H152.633C152.592 43.416 152.71 43.89 152.988 44.25C153.266 44.61 153.649 44.7946 154.137 44.8037C154.834 44.8265 155.477 44.5234 156.064 43.8945L156.885 44.7559C156.575 45.1979 156.167 45.542 155.661 45.7881C155.155 46.0296 154.602 46.1458 154 46.1367ZM154.69 39.793C153.834 39.7656 153.191 40.3717 152.763 41.6113L155.832 41.6182L155.859 41.4746C155.891 41.265 155.894 41.0599 155.866 40.8594C155.816 40.5358 155.688 40.2806 155.483 40.0938C155.278 39.9069 155.014 39.8066 154.69 39.793ZM162.579 45.2686C162.019 45.8656 161.317 46.1549 160.474 46.1367C159.995 46.1276 159.596 46.0091 159.277 45.7812C158.963 45.5534 158.737 45.2367 158.601 44.8311C158.468 44.4209 158.43 43.9401 158.484 43.3887L159.284 38.6035H160.904L160.098 43.4092C160.079 43.5778 160.077 43.7419 160.091 43.9014C160.136 44.4665 160.421 44.7604 160.945 44.7832C161.661 44.8105 162.24 44.5234 162.682 43.9219L163.611 38.6035H165.231L163.953 46H162.436L162.579 45.2686ZM170.461 40.1211C170.251 40.0755 170.039 40.0527 169.825 40.0527C169.114 40.0345 168.549 40.3285 168.13 40.9346L167.241 46H165.621L166.899 38.6035L168.438 38.5967L168.273 39.4375C168.779 38.7676 169.363 38.4395 170.023 38.4531C170.174 38.4531 170.381 38.4873 170.646 38.5557L170.461 40.1211ZM174.884 43.9492C174.961 43.498 174.667 43.1859 174.002 43.0127C173.341 42.835 172.89 42.6937 172.648 42.5889C171.71 42.1878 171.256 41.5771 171.288 40.7568C171.311 40.0915 171.612 39.5423 172.19 39.1094C172.774 38.6719 173.471 38.4577 174.282 38.4668C175.066 38.4759 175.704 38.6969 176.196 39.1299C176.693 39.5628 176.937 40.1302 176.928 40.832L175.321 40.8252C175.33 40.4834 175.237 40.2168 175.041 40.0254C174.845 39.8294 174.576 39.7269 174.234 39.7178C173.874 39.7178 173.564 39.8066 173.305 39.9844C173.049 40.1621 172.901 40.3945 172.86 40.6816C172.797 41.0964 173.088 41.3857 173.735 41.5498C174.382 41.7093 174.861 41.8574 175.171 41.9941C176.073 42.3906 176.508 43.0104 176.477 43.8535C176.454 44.3229 176.299 44.7331 176.012 45.084C175.729 45.4303 175.349 45.6969 174.87 45.8838C174.392 46.0661 173.883 46.1504 173.346 46.1367C172.539 46.1276 171.869 45.8929 171.336 45.4326C170.807 44.9723 170.548 44.3822 170.557 43.6621L172.122 43.6689C172.131 44.0654 172.25 44.3662 172.478 44.5713C172.705 44.7764 173.018 44.8812 173.414 44.8857C173.815 44.8857 174.148 44.8037 174.412 44.6396C174.681 44.471 174.838 44.2409 174.884 43.9492Z" fill="#322C37"/>
<path d="M119 64C119 64.2652 118.895 64.5196 118.707 64.7071C118.52 64.8946 118.265 65 118 65C117.735 65 117.48 64.8946 117.293 64.7071C117.105 64.5196 117 64.2652 117 64C117 63.7348 117.105 63.4804 117.293 63.2929C117.48 63.1054 117.735 63 118 63C118.265 63 118.52 63.1054 118.707 63.2929C118.895 63.4804 119 63.7348 119 64Z" fill="#403846"/>
<path d="M124 65C124.265 65 124.52 64.8946 124.707 64.7071C124.895 64.5196 125 64.2652 125 64C125 63.7348 124.895 63.4804 124.707 63.2929C124.52 63.1054 124.265 63 124 63C123.735 63 123.48 63.1054 123.293 63.2929C123.105 63.4804 123 63.7348 123 64C123 64.2652 123.105 64.5196 123.293 64.7071C123.48 64.8946 123.735 65 124 65Z" fill="#403846"/>
<path fill-rule="evenodd" clip-rule="evenodd" d="M121.024 54H121C115.477 54 111 58.477 111 64C111 69.523 115.477 74 121 74C126.523 74 131 69.523 131 64C131 58.742 126.942 54.432 121.788 54.03V54.028C121.534 54.0089 121.28 53.9996 121.025 54H121.024ZM121 72C122.223 72.0003 123.43 71.7201 124.528 71.1811C125.625 70.6421 126.585 69.8585 127.333 68.8907C128.08 67.9228 128.596 66.7964 128.841 65.5981C129.085 64.3997 129.051 63.1613 128.742 61.978C126.993 62.0986 125.243 61.7579 123.666 60.9899C122.09 60.222 120.743 59.0538 119.76 57.602C119.019 58.3603 118.133 58.9631 117.156 59.3752C116.179 59.7873 115.13 60.0004 114.069 60.002C113.367 61.2183 112.998 62.5979 112.998 64.0021C112.999 65.4064 113.369 66.7858 114.071 68.0017C114.774 69.2176 115.784 70.2273 117 70.9291C118.216 71.631 119.596 72.0003 121 72ZM120.979 56H121.024H120.979Z" fill="#403846"/>
<path d="M104.889 67.1357H108.457V68.6738H104.889V72.7168H103.254V68.6738H99.6855V67.1357H103.254V63.4004H104.889V67.1357Z" fill="#403846"/>
</svg>
